<?xml version="1.0" encoding="UTF-8"?>
<svg version="1.1" xmlns="http://www.w3.org/2000/svg" width="466" height="463">
<path d="M0 0 C0.72977051 0.31549805 1.45954102 0.63099609 2.21142578 0.95605469 C25.48521332 11.07509275 47.25264288 25.6091411 65.36816406 43.39892578 C67.14616861 45.14341318 68.94435341 46.86581162 70.7421875 48.58984375 C78.40984763 56.01888576 85.39036302 63.69286436 91.73242188 72.28369141 C92.98942094 73.98567589 94.2672632 75.67044998 95.546875 77.35546875 C102.30568598 86.39073927 107.80181016 95.9989519 113 106 C113.57814453 107.09924805 113.57814453 107.09924805 114.16796875 108.22070312 C130.87796512 140.35750503 138.45356239 175.79005493 138.375 211.8125 C138.37418427 213.2253981 138.37418427 213.2253981 138.37335205 214.6668396 C138.2300873 268.8352411 119.4800538 320.87156017 84 362 C82.88238281 363.31291016 82.88238281 363.31291016 81.7421875 364.65234375 C79.54869535 367.15859619 77.29449944 369.58566495 75 372 C74.45037598 372.58217285 73.90075195 373.1643457 73.33447266 373.76416016 C63.64325167 383.96288227 53.4753438 392.86408551 42 401 C41.36739258 401.45068848 40.73478516 401.90137695 40.08300781 402.36572266 C12.65873641 421.71851597 -18.19322054 434.28577002 -51 441 C-52.17103271 441.24991699 -52.17103271 441.24991699 -53.36572266 441.50488281 C-98.35767551 450.69157198 -148.39671396 443.3809743 -190 425 C-191.09465576 424.52675293 -191.09465576 424.52675293 -192.21142578 424.04394531 C-215.48521332 413.92490725 -237.25264288 399.3908589 -255.36816406 381.60107422 C-257.14616861 379.85658682 -258.94435341 378.13418838 -260.7421875 376.41015625 C-268.40984763 368.98111424 -275.39036302 361.30713564 -281.73242188 352.71630859 C-282.98942094 351.01432411 -284.2672632 349.32955002 -285.546875 347.64453125 C-292.30568598 338.60926073 -297.80181016 329.0010481 -303 319 C-303.38542969 318.26716797 -303.77085937 317.53433594 -304.16796875 316.77929688 C-320.87796512 284.64249497 -328.45356239 249.20994507 -328.375 213.1875 C-328.37445618 212.24556793 -328.37391235 211.30363586 -328.37335205 210.3331604 C-328.2300873 156.1647589 -309.4800538 104.12843983 -274 63 C-273.25492187 62.12472656 -272.50984375 61.24945313 -271.7421875 60.34765625 C-269.54869535 57.84140381 -267.29449944 55.41433505 -265 53 C-264.45037598 52.41782715 -263.90075195 51.8356543 -263.33447266 51.23583984 C-253.64325167 41.03711773 -243.4753438 32.13591449 -232 24 C-231.36739258 23.54931152 -230.73478516 23.09862305 -230.08300781 22.63427734 C-202.65873641 3.28148403 -171.80677946 -9.28577002 -139 -16 C-138.21931152 -16.16661133 -137.43862305 -16.33322266 -136.63427734 -16.50488281 C-91.64232449 -25.69157198 -41.60328604 -18.3809743 0 0 Z " fill="#FEFEFE" transform="translate(328,19)"/>
<path d="M0 0 C2.97200464 2.60715497 5.82084629 5.86888524 6.16113281 9.91674805 C6.37252764 21.72167405 5.97803638 32.51328824 3 44 C2.77183594 44.92425781 2.54367187 45.84851563 2.30859375 46.80078125 C1.59502127 49.55313225 0.81063219 52.27466192 0 55 C-0.33644531 56.15371094 -0.67289063 57.30742188 -1.01953125 58.49609375 C-5.42220678 73.2709493 -10.60768886 87.90137081 -17.8203125 101.546875 C-19.4625834 104.9619284 -20.19440413 108.30768557 -21 112 C-21.66 112.99 -22.32 113.98 -23 115 C-23.66 115 -24.32 115 -25 115 C-25.16048828 116.87558594 -25.16048828 116.87558594 -25.32421875 118.7890625 C-25.95794026 124.46480994 -27.34038814 129.86645241 -28.8125 135.375 C-29.06064453 136.33921875 -29.30878906 137.3034375 -29.56445312 138.296875 C-31.07855935 144.0450849 -32.88768251 149.58548758 -34.97558594 155.14892578 C-36.06762127 158.18819857 -37.00903205 161.24959371 -37.93359375 164.34375 C-42.79032225 180.35795552 -49.15372968 196.09227269 -56.875 210.9375 C-57.31465088 211.78828125 -57.75430176 212.6390625 -58.20727539 213.515625 C-60.66039334 218.07228111 -63.12329117 221.5609841 -67 225 C-57.82617511 225.24682937 -48.99195299 224.7810813 -39.88232422 223.71582031 C-33.56863418 222.99891433 -27.35574592 222.77164985 -21 223 C-20.89558594 222.34386719 -20.79117188 221.68773437 -20.68359375 221.01171875 C-19.8044505 217.13846476 -18.46300017 213.52365753 -17.0625 209.8125 C-16.79759766 209.08869141 -16.53269531 208.36488281 -16.25976562 207.61914062 C-14.24514044 202.24514044 -14.24514044 202.24514044 -12 200 C-11.01 200 -10.02 200 -9 200 C-9.265241 201.43854237 -9.53766477 202.87575975 -9.8125 204.3125 C-10.03873047 205.51326172 -10.03873047 205.51326172 -10.26953125 206.73828125 C-11.3443948 211.53780568 -12.68056981 216.26273713 -14 221 C-8.02263584 221.04965857 -2.04539337 221.08584173 3.93212891 221.10986328 C5.96307468 221.11988386 7.99400617 221.13350401 10.02490234 221.15087891 C12.95413758 221.17530117 15.88318106 221.18652279 18.8125 221.1953125 C19.71178223 221.20563507 20.61106445 221.21595764 21.53759766 221.22659302 C27.03578571 221.22755847 31.71984558 220.55077706 37 219 C29.28897961 212.45403002 20.4072935 209.03666162 11.04296875 205.5 C-3.72182278 199.87958233 -3.72182278 199.87958233 -8 195 C-8 194.01 -8 193.02 -8 192 C-4.44869445 189.82941063 -1.37520382 189.64376599 2.74267578 189.4375 C3.41350693 189.40140625 4.08433807 189.3653125 4.77549744 189.328125 C6.99842658 189.21049746 9.2217714 189.10536839 11.4453125 189 C13.01403242 188.91883758 14.58270677 188.83679021 16.15133667 188.75390625 C20.30025603 188.53663942 24.44961506 188.32947808 28.59918213 188.125 C56.11907946 186.78157736 56.11907946 186.78157736 83.6171875 185.0625 C84.61098419 184.99998047 85.60478088 184.93746094 86.62869263 184.87304688 C93.55490169 184.35448251 100.42204333 183.30608365 107 181 C107.33 180.34 107.66 179.68 108 179 C76.69304091 170.44435775 43.70380788 168.30655757 11.5 165.4140625 C3.03236673 164.65011092 -5.39391956 163.76195463 -13.8125 162.5625 C-15.02341309 162.39705688 -15.02341309 162.39705688 -16.25878906 162.22827148 C-21.5104709 161.43853244 -26.08310578 160.01273093 -31 158 C-31 156.68 -31 155.36 -31 154 C-25.12292174 151.41814661 -19.13476924 150.83446666 -12.8125 150 C-12.15718292 149.91317963 -11.50186584 149.82635925 -10.82669067 149.73690796 C22.4687003 145.38598477 56.45656135 144.83453497 90 145 C90 146.98 90 148.96 90 151 C89.07610474 151.01839432 88.15220947 151.03678864 87.20031738 151.05574036 C78.3778043 151.23363979 69.55565203 151.42381237 60.73368073 151.62686634 C56.20114193 151.73078237 51.66860431 151.83038904 47.13574219 151.91918945 C27.25013781 152.31181123 7.67954491 152.83936865 -12 156 C5.11000722 159.22827862 22.29965044 161.30518246 39.609375 163.125 C76.24287363 166.98070919 76.24287363 166.98070919 91.65847778 169.20050049 C93.02880924 169.39672771 94.39996088 169.58732853 95.77194214 169.77166748 C104.03524163 170.8930387 110.8078141 172.7105087 118 177 C118 178.32 118 179.64 118 181 C96.83636941 191.52837179 71.99923704 191.58149465 48.88439941 192.53839111 C44.05217331 192.74038631 39.22060876 192.95759518 34.38908386 193.17562866 C31.83271803 193.29000944 29.27617117 193.40043658 26.71943665 193.5062561 C16.79101122 193.13661693 16.79101122 193.13661693 8 196 C8.52207031 196.23074219 9.04414063 196.46148437 9.58203125 196.69921875 C18.77138662 200.77085957 27.95202415 204.87139543 37 209.25 C37.65097656 209.55421875 38.30195313 209.8584375 38.97265625 210.171875 C43.00483373 212.15800064 45.61866348 214.16604821 48 218 C48 219.32 48 220.64 48 222 C40.45115768 228.58104202 30.71689792 228.28928184 21.18359375 228.1953125 C20.08652603 228.1924826 18.98945831 228.18965271 17.85914612 228.18673706 C14.38514902 228.17561997 10.91141803 228.15053112 7.4375 228.125 C5.0696652 228.11495925 2.70182633 228.10583532 0.33398438 228.09765625 C-5.44409988 228.07570844 -11.22203092 228.04231609 -17 228 C-17.12932922 228.59648346 -17.25865845 229.19296692 -17.39190674 229.80752563 C-18.25936288 233.76733485 -19.12202523 237.70370339 -20.296875 241.5859375 C-20.53035645 242.36179199 -20.76383789 243.13764648 -21.00439453 243.93701172 C-21.25044434 244.74154785 -21.49649414 245.54608398 -21.75 246.375 C-22.14034424 247.66494873 -22.14034424 247.66494873 -22.53857422 248.98095703 C-24.35556188 254.96010143 -26.23121424 260.91981319 -28.125 266.875 C-32.86933863 279.73374784 -32.86933863 279.73374784 -35 293 C-34.31035156 292.46890625 -33.62070313 291.9378125 -32.91015625 291.390625 C-17.58715426 279.8720995 -17.58715426 279.8720995 -8 281 C-5.625 281.5625 -5.625 281.5625 -4 283 C-2.875 286.1875 -2.875 286.1875 -3 290 C-8.3603632 300.55758491 -22.55112359 305.53137436 -33 309 C-34.01271973 309.17221069 -34.01271973 309.17221069 -35.04589844 309.34790039 C-38.55705757 310.5196028 -39.69896454 314.42967098 -41.3125 317.5625 C-41.66505859 318.27341797 -42.01761719 318.98433594 -42.38085938 319.71679688 C-43.46560129 321.71218632 -44.41185894 323.37299835 -46 325 C-49.79296875 325.46484375 -49.79296875 325.46484375 -53 325 C-54.30948604 321.35813335 -53.67188216 319.14657752 -52.46118164 315.52880859 C-52.10073257 314.43442474 -51.74028351 313.34004089 -51.36891174 312.2124939 C-50.97002243 311.03635529 -50.57113312 309.86021667 -50.16015625 308.6484375 C-49.75921249 307.43805817 -49.35826874 306.22767883 -48.94517517 304.98062134 C-47.87894916 301.76653846 -46.80412685 298.55561188 -45.72454834 295.3460083 C-44.20317499 290.81667211 -42.69676366 286.2823463 -41.1905365 281.74795532 C-40.38767542 279.33384968 -39.58092992 276.92103192 -38.77003479 274.50961304 C-38.40643356 273.42153351 -38.04283234 272.33345398 -37.66821289 271.21240234 C-37.34542862 270.25183929 -37.02264435 269.29127625 -36.69007874 268.30160522 C-35.90426864 266.08118097 -35.90426864 266.08118097 -36 264 C-40.64147953 264.44917544 -45.08735271 264.9889962 -49.625 266.0625 C-56.34868887 267.49873101 -63.16364509 267.16407252 -70 267 C-70.268125 266.360625 -70.53625 265.72125 -70.8125 265.0625 C-71.88667752 262.66868314 -71.88667752 262.66868314 -75 262 C-75 261.34 -75 260.68 -75 260 C-76.24136719 260.13019531 -77.48273438 260.26039063 -78.76171875 260.39453125 C-80.40352614 260.5352576 -82.04546096 260.67450289 -83.6875 260.8125 C-84.91243164 260.94688477 -84.91243164 260.94688477 -86.16210938 261.08398438 C-90.55311429 261.42175398 -92.31330729 261.53347902 -95.90625 258.7421875 C-96.94265625 257.38480469 -96.94265625 257.38480469 -98 256 C-98.52207031 255.35675781 -99.04414063 254.71351563 -99.58203125 254.05078125 C-103 249.22222222 -103 249.22222222 -103 247 C-104.32 246.67 -105.64 246.34 -107 246 C-105.68 246 -104.36 246 -103 246 C-103 245.34 -103 244.68 -103 244 C-106.35062267 243.64044626 -106.35062267 243.64044626 -110 245 C-112.25184031 248.28965204 -113.46393715 251.95447188 -114.8125 255.6875 C-115.66743919 257.88793887 -116.52558778 260.08713312 -117.38671875 262.28515625 C-118.03326416 263.96569092 -118.03326416 263.96569092 -118.69287109 265.68017578 C-125.56978097 283.14603692 -133.43160903 300.8574857 -146 315 C-146.64839844 315.73089844 -147.29679687 316.46179688 -147.96484375 317.21484375 C-153.93016072 323.558161 -159.80538365 328.16876454 -168.75 328.625 C-172.53178554 328.42957253 -173.79640316 328.13997283 -177 325.9375 C-182.39992372 318.00636204 -182.48273212 311.29109823 -182.375 301.875 C-182.37167664 301.19146454 -182.36835327 300.50792908 -182.3649292 299.80368042 C-182.2977932 287.85433365 -181.5878688 275.97028558 -180.625 264.0625 C-180.5620575 263.27204285 -180.49911499 262.48158569 -180.43426514 261.66717529 C-179.78163453 253.65024668 -179.04269292 245.80663946 -177 238 C-175.68 237.67 -174.36 237.34 -173 237 C-171.10470497 242.05412008 -171.04458532 244.47366132 -172.48388672 249.76367188 C-173.39755217 253.72260071 -173.48566652 257.70089575 -173.625 261.75 C-173.67865723 263.1879895 -173.67865723 263.1879895 -173.73339844 264.6550293 C-174.02327425 273.57009088 -174.16476181 282.49018361 -174.23016357 291.4095459 C-174.24326598 292.99675146 -174.26111961 294.58392574 -174.28399658 296.17102051 C-174.81713823 309.01819499 -174.81713823 309.01819499 -171 321 C-168.98045836 322.27623759 -168.98045836 322.27623759 -167 323 C-166.44570312 322.566875 -165.89140625 322.13375 -165.3203125 321.6875 C-164.23363281 320.8521875 -164.23363281 320.8521875 -163.125 320 C-162.40570313 319.443125 -161.68640625 318.88625 -160.9453125 318.3125 C-159 317 -159 317 -157 317 C-156.7421875 316.42507813 -156.484375 315.85015625 -156.21875 315.2578125 C-154.89131679 312.79865738 -153.33903231 310.97782793 -151.5 308.875 C-138.35206538 292.54611345 -128.56247622 270.52210822 -121 251 C-122.05058594 251.27714844 -123.10117188 251.55429687 -124.18359375 251.83984375 C-144.89531897 257.22819986 -144.89531897 257.22819986 -155 253 C-155 252.34 -155 251.68 -155 251 C-155.66 251 -156.32 251 -157 251 C-157 250.34 -157 249.68 -157 249 C-157.66 249 -158.32 249 -159 249 C-160.15269066 246.28294344 -161.08213278 243.67778678 -161.8125 240.8125 C-162.79433794 237.66028346 -163.87023118 235.15369763 -165.375 232.25 C-167.68338129 227.78939262 -169.44304318 223.28599954 -171.08203125 218.54296875 C-171.88294491 216.32426749 -172.79422827 214.24908718 -173.8125 212.125 C-175.12960288 208.65893978 -174.73571412 207.49464208 -174 204 C-174.44988281 203.29746094 -174.89976562 202.59492188 -175.36328125 201.87109375 C-177.44890425 198.21254267 -178.01416748 194.80476281 -178.6875 190.6875 C-178.88182617 189.57665039 -178.88182617 189.57665039 -179.08007812 188.44335938 C-179.3958706 186.63047666 -179.69920583 184.81543149 -180 183 C-173.6999506 179.2345933 -167.80484432 176.38331129 -160.66015625 174.65625 C-156.69260194 173.67747008 -152.856717 172.34270888 -149 171 C-149 166.55672728 -149.79726296 165.66406502 -152 162 C-152.61976035 159.81229892 -153.15941139 157.6006159 -153.625 155.375 C-154.3067197 152.17165046 -154.96413362 149.10759914 -156 146 C-153.48659517 140.12740967 -149.63479921 138.5480562 -143.87695312 136.22119141 C-142.82443359 135.81819824 -141.77191406 135.41520508 -140.6875 135 C-139.60533203 134.56993652 -138.52316406 134.13987305 -137.40820312 133.69677734 C-135.25204372 132.84107169 -133.09306821 131.99242326 -130.93115234 131.15136719 C-128.48481346 130.19043647 -126.06103522 129.19695601 -123.64453125 128.1640625 C-115.67461615 124.79841775 -107.70156128 122.43938658 -99.29248047 120.52832031 C-96.71165012 119.93354748 -94.13918018 119.30837793 -91.56640625 118.6796875 C-89.69017419 118.22367012 -87.81387273 117.76793821 -85.9375 117.3125 C-84.61661377 116.99043579 -84.61661377 116.99043579 -83.26904297 116.66186523 C-79.50136612 115.76046061 -75.78462339 114.92172462 -71.94140625 114.41796875 C-69.11677224 114.31697053 -69.11677224 114.31697053 -68 113 C-64.93256794 112.58438328 -61.86216052 112.2280319 -58.78515625 111.890625 C-55.80643065 111.28166061 -55.80643065 111.28166061 -54.6171875 108.61328125 C-53.87352491 105.9505816 -53.87352491 105.9505816 -54.0625 102.9375 C-54 100 -54 100 -52.55859375 98.1875 C-50.60020147 95.43887926 -50.39614694 93.40086323 -50 90.0625 C-46.32933214 59.81772624 -33.6492048 22.39324151 -11 1 C-7.06588423 -1.44573357 -4.48597745 -1.25922174 0 0 Z " fill="#F9E372" transform="translate(263,23)"/>
<path d="M0 0 C2.97200464 2.60715497 5.82084629 5.86888524 6.16113281 9.91674805 C6.37252764 21.72167405 5.97803638 32.51328824 3 44 C2.77183594 44.92425781 2.54367187 45.84851563 2.30859375 46.80078125 C1.59502127 49.55313225 0.81063219 52.27466192 0 55 C-0.33644531 56.15371094 -0.67289062 57.30742188 -1.01953125 58.49609375 C-5.42220678 73.2709493 -10.60768886 87.90137081 -17.8203125 101.546875 C-19.4625834 104.9619284 -20.19440413 108.30768557 -21 112 C-21.66 112.99 -22.32 113.98 -23 115 C-23.66 115 -24.32 115 -25 115 C-25.10699219 116.25039062 -25.21398437 117.50078125 -25.32421875 118.7890625 C-25.95794026 124.46480994 -27.34038814 129.86645241 -28.8125 135.375 C-29.06064453 136.33921875 -29.30878906 137.3034375 -29.56445312 138.296875 C-31.07855935 144.0450849 -32.88768251 149.58548758 -34.97558594 155.14892578 C-36.06762127 158.18819857 -37.00903205 161.24959371 -37.93359375 164.34375 C-42.79032225 180.35795552 -49.15372968 196.09227269 -56.875 210.9375 C-57.31465088 211.78828125 -57.75430176 212.6390625 -58.20727539 213.515625 C-60.66039334 218.07228111 -63.12329117 221.5609841 -67 225 C-57.82617511 225.24682937 -48.99195299 224.7810813 -39.88232422 223.71582031 C-33.56863418 222.99891433 -27.35574592 222.77164985 -21 223 C-20.89558594 222.34386719 -20.79117188 221.68773437 -20.68359375 221.01171875 C-19.8044505 217.13846476 -18.46300017 213.52365753 -17.0625 209.8125 C-16.79759766 209.08869141 -16.53269531 208.36488281 -16.25976562 207.61914062 C-14.24514044 202.24514044 -14.24514044 202.24514044 -12 200 C-11.01 200 -10.02 200 -9 200 C-9.265241 201.43854237 -9.53766477 202.87575975 -9.8125 204.3125 C-10.03873047 205.51326172 -10.03873047 205.51326172 -10.26953125 206.73828125 C-11.3443948 211.53780568 -12.68056981 216.26273713 -14 221 C-8.02263584 221.04965857 -2.04539337 221.08584173 3.93212891 221.10986328 C5.96307468 221.11988386 7.99400617 221.13350401 10.02490234 221.15087891 C12.95413758 221.17530117 15.88318106 221.18652279 18.8125 221.1953125 C19.71178223 221.20563507 20.61106445 221.21595764 21.53759766 221.22659302 C27.03578571 221.22755847 31.71984558 220.55077706 37 219 C29.28897961 212.45403002 20.4072935 209.03666162 11.04296875 205.5 C-3.72182278 199.87958233 -3.72182278 199.87958233 -8 195 C-8 194.01 -8 193.02 -8 192 C-4.44869445 189.82941063 -1.37520382 189.64376599 2.74267578 189.4375 C3.41350693 189.40140625 4.08433807 189.3653125 4.77549744 189.328125 C6.99842658 189.21049746 9.2217714 189.10536839 11.4453125 189 C13.01403242 188.91883758 14.58270677 188.83679021 16.15133667 188.75390625 C20.30025603 188.53663942 24.44961506 188.32947808 28.59918213 188.125 C56.11907946 186.78157736 56.11907946 186.78157736 83.6171875 185.0625 C84.61098419 184.99998047 85.60478088 184.93746094 86.62869263 184.87304688 C93.55490169 184.35448251 100.42204333 183.30608365 107 181 C107.33 180.34 107.66 179.68 108 179 C76.69304091 170.44435775 43.70380788 168.30655757 11.5 165.4140625 C3.03236673 164.65011092 -5.39391956 163.76195463 -13.8125 162.5625 C-14.61977539 162.45220459 -15.42705078 162.34190918 -16.25878906 162.22827148 C-21.5104709 161.43853244 -26.08310578 160.01273093 -31 158 C-31 156.68 -31 155.36 -31 154 C-25.12292174 151.41814661 -19.13476924 150.83446666 -12.8125 150 C-12.15718292 149.91317963 -11.50186584 149.82635925 -10.82669067 149.73690796 C22.4687003 145.38598477 56.45656135 144.83453497 90 145 C90 146.98 90 148.96 90 151 C89.07610474 151.01839432 88.15220947 151.03678864 87.20031738 151.05574036 C78.3778043 151.23363979 69.55565203 151.42381237 60.73368073 151.62686634 C56.20114193 151.73078237 51.66860431 151.83038904 47.13574219 151.91918945 C27.25013781 152.31181123 7.67954491 152.83936865 -12 156 C5.11000722 159.22827862 22.29965044 161.30518246 39.609375 163.125 C76.24287363 166.98070919 76.24287363 166.98070919 91.65847778 169.20050049 C93.02880924 169.39672771 94.39996088 169.58732853 95.77194214 169.77166748 C104.03524163 170.8930387 110.8078141 172.7105087 118 177 C118 178.32 118 179.64 118 181 C96.83636941 191.52837179 71.99923704 191.58149465 48.88439941 192.53839111 C44.05217331 192.74038631 39.22060876 192.95759518 34.38908386 193.17562866 C31.83271803 193.29000944 29.27617117 193.40043658 26.71943665 193.5062561 C16.79101122 193.13661693 16.79101122 193.13661693 8 196 C8.52207031 196.23074219 9.04414063 196.46148437 9.58203125 196.69921875 C18.77138662 200.77085957 27.95202415 204.87139543 37 209.25 C37.65097656 209.55421875 38.30195313 209.8584375 38.97265625 210.171875 C43.00483373 212.15800064 45.61866348 214.16604821 48 218 C48 219.32 48 220.64 48 222 C40.45115768 228.58104202 30.71689792 228.28928184 21.18359375 228.1953125 C20.08652603 228.1924826 18.98945831 228.18965271 17.85914612 228.18673706 C14.38514902 228.17561997 10.91141803 228.15053112 7.4375 228.125 C5.0696652 228.11495925 2.70182633 228.10583532 0.33398438 228.09765625 C-5.44409988 228.07570844 -11.22203092 228.04231609 -17 228 C-17.12932922 228.59648346 -17.25865845 229.19296692 -17.39190674 229.80752563 C-18.25936288 233.76733485 -19.12202523 237.70370339 -20.296875 241.5859375 C-20.53035645 242.36179199 -20.76383789 243.13764648 -21.00439453 243.93701172 C-21.37346924 245.14381592 -21.37346924 245.14381592 -21.75 246.375 C-22.01022949 247.23496582 -22.27045898 248.09493164 -22.53857422 248.98095703 C-24.35556188 254.96010143 -26.23121424 260.91981319 -28.125 266.875 C-32.86933863 279.73374784 -32.86933863 279.73374784 -35 293 C-34.31035156 292.46890625 -33.62070313 291.9378125 -32.91015625 291.390625 C-17.58715426 279.8720995 -17.58715426 279.8720995 -8 281 C-5.625 281.5625 -5.625 281.5625 -4 283 C-2.875 286.1875 -2.875 286.1875 -3 290 C-8.3603632 300.55758491 -22.55112359 305.53137436 -33 309 C-33.67514648 309.11480713 -34.35029297 309.22961426 -35.04589844 309.34790039 C-38.55705757 310.5196028 -39.69896454 314.42967098 -41.3125 317.5625 C-41.66505859 318.27341797 -42.01761719 318.98433594 -42.38085938 319.71679688 C-43.46560129 321.71218632 -44.41185894 323.37299835 -46 325 C-49.79296875 325.46484375 -49.79296875 325.46484375 -53 325 C-54.39029316 321.24020284 -53.58042525 318.85771978 -52.34106445 315.12084961 C-51.95348465 313.93539047 -51.56590485 312.74993134 -51.1665802 311.52854919 C-50.73241046 310.23639223 -50.29797048 308.94432604 -49.86328125 307.65234375 C-49.42216673 306.31706228 -48.98192881 304.98149094 -48.54252625 303.64564514 C-47.38119529 300.12369781 -46.2071015 296.60612983 -45.03057861 293.0892334 C-44.08205835 290.24697812 -43.14243716 287.40182245 -42.20336628 284.55643368 C-41.07209621 281.12910035 -39.93709354 277.7030083 -38.80078125 274.27734375 C-38.58846674 273.6372682 -38.37615223 272.99719265 -38.15740395 272.33772087 C-35.82112503 265.3070162 -33.42719771 258.30758682 -30.8477478 251.36207581 C-29.50537955 247.62184131 -28.39873143 243.82101989 -27.3125 240 C-25.05725806 232.17177419 -25.05725806 232.17177419 -24 229 C-24.90878906 229.13277344 -25.81757813 229.26554688 -26.75390625 229.40234375 C-44.54001298 231.90151977 -62.05884836 232.13250481 -80 232 C-80.04898438 231.38511719 -80.09796875 230.77023438 -80.1484375 230.13671875 C-80.22320312 229.32847656 -80.29796875 228.52023438 -80.375 227.6875 C-80.44460937 226.88699219 -80.51421875 226.08648437 -80.5859375 225.26171875 C-80.89564426 222.72775559 -80.89564426 222.72775559 -83 220 C-85.99358 196.21031119 -77.62209573 169.33252699 -70 147 C-69.66210449 146.00000977 -69.32420898 145.00001953 -68.97607422 143.96972656 C-61.86895376 123.11002965 -61.86895376 123.11002965 -56.9375 113.9375 C-54.17833953 108.7916973 -53.5740831 105.74987812 -54 100 C-53.53078125 99.39285156 -53.0615625 98.78570312 -52.578125 98.16015625 C-50.58257653 95.4286258 -50.39691594 93.40734368 -50 90.0625 C-46.32933214 59.81772624 -33.6492048 22.39324151 -11 1 C-7.06588423 -1.44573357 -4.48597745 -1.25922174 0 0 Z " fill="#494221" transform="translate(263,23)"/>
<path d="M0 0 C1.4309198 -0.00642769 1.4309198 -0.00642769 2.89074707 -0.01298523 C4.88386242 -0.01867652 6.87699852 -0.01926772 8.87011719 -0.01489258 C11.9267837 -0.01169729 14.98251273 -0.03537701 18.0390625 -0.06054688 C19.98437378 -0.06281682 21.92968766 -0.06352479 23.875 -0.0625 C24.78745483 -0.07170975 25.69990967 -0.08091949 26.64001465 -0.09040833 C27.48519653 -0.08417953 28.33037842 -0.07795074 29.20117188 -0.0715332 C29.94298706 -0.07216263 30.68480225 -0.07279205 31.44909668 -0.07344055 C33.9837535 0.41120408 34.85099314 1.27159578 36.40625 3.30078125 C38.41830557 11.98382319 40.26448959 23.859644 37.76953125 32.5078125 C37.64964844 33.09949219 37.52976562 33.69117188 37.40625 34.30078125 C39.27404347 36.4393337 39.27404347 36.4393337 41.84375 37.23828125 C44.41526082 38.30451745 45.54319233 39.30736386 47.40625 41.30078125 C36.22137231 42.36534359 25.0757968 43.32930224 13.84375 43.67578125 C4.60681117 43.99781083 -4.50212672 45.02551024 -13.65625 46.23828125 C-14.95957275 46.40827637 -16.26289551 46.57827148 -17.60571289 46.75341797 C-25.29000809 47.80141595 -25.29000809 47.80141595 -32.59375 50.30078125 C-32.59375 50.96078125 -32.59375 51.62078125 -32.59375 52.30078125 C-26.23113915 54.96192062 -20.15787048 56.2644623 -13.34375 57.23828125 C-12.20333252 57.40521484 -11.06291504 57.57214844 -9.88793945 57.74414062 C2.39641846 59.44832901 14.73958595 60.48033152 27.09234619 61.54949951 C43.61702104 62.9827137 60.000111 64.83749185 76.40625 67.30078125 C77.34114258 67.43871094 78.27603516 67.57664062 79.23925781 67.71875 C99.20025342 70.69778296 99.20025342 70.69778296 106.40625 74.30078125 C106.07625 75.29078125 105.74625 76.28078125 105.40625 77.30078125 C96.03598315 81.37172539 84.71022228 81.18590241 74.65625 81.80078125 C72.81368031 81.92174961 70.97115194 82.04334872 69.12866211 82.16552734 C50.26084164 83.39305718 31.37529495 84.36007815 12.49121094 85.29882812 C11.31745407 85.35851776 10.1436972 85.4182074 8.93437195 85.47970581 C6.72279753 85.59202632 4.51105943 85.70118362 2.29914856 85.80667114 C1.3155687 85.85709564 0.33198883 85.90752014 -0.68139648 85.95947266 C-1.53765121 86.00149811 -2.39390594 86.04352356 -3.27610779 86.08682251 C-5.47759892 86.29005848 -7.4697281 86.70024077 -9.59375 87.30078125 C-7.35386213 91.87421083 -5.08428633 93.49245389 -0.53125 95.67578125 C0.07291748 95.96831787 0.67708496 96.26085449 1.29956055 96.56225586 C6.33480819 98.94168834 11.50736329 100.90867283 16.71875 102.86328125 C31.9154961 108.56465039 31.9154961 108.56465039 36.40625 115.30078125 C29.75591981 117.00993681 23.75181467 117.57328213 16.90234375 117.49609375 C15.9384523 117.49326385 14.97456085 117.49043396 13.98146057 117.48751831 C10.93542494 117.47641973 7.88969514 117.45133489 4.84375 117.42578125 C2.76497824 117.41573809 0.68620182 117.40661459 -1.39257812 117.3984375 C-6.45975131 117.3765143 -11.526699 117.34205681 -16.59375 117.30078125 C-15.97362481 114.57042424 -15.34784113 111.84157361 -14.71875 109.11328125 C-14.54472656 108.34435547 -14.37070313 107.57542969 -14.19140625 106.78320312 C-13.26829956 102.80016871 -12.26302814 99.05289742 -10.59375 95.30078125 C-13.25710657 96.30075945 -14.38684426 96.92564771 -15.78222656 99.45556641 C-16.09643555 100.32487793 -16.41064453 101.19418945 -16.734375 102.08984375 C-17.08242187 103.03085938 -17.43046875 103.971875 -17.7890625 104.94140625 C-18.13710937 105.92625 -18.48515625 106.91109375 -18.84375 107.92578125 C-19.20726562 108.91835937 -19.57078125 109.9109375 -19.9453125 110.93359375 C-20.84100899 113.38497362 -21.7231445 115.84040196 -22.59375 118.30078125 C-55.88914348 121.88243334 -55.88914348 121.88243334 -71.59375 121.30078125 C-70.82546875 120.71425781 -70.0571875 120.12773437 -69.265625 119.5234375 C-56.61184252 108.99711845 -51.07363821 88.35298801 -45.28125 73.48828125 C-45.02672058 72.83945984 -44.77219116 72.19063843 -44.50994873 71.52215576 C-41.01552029 62.58045522 -38.0977008 53.57528796 -35.59375 44.30078125 C-35.14786663 42.71947734 -34.70023078 41.13866536 -34.25 39.55859375 C-33.86385535 38.18119346 -33.47843023 36.80359124 -33.09375 35.42578125 C-32.88508301 34.68255615 -32.67641602 33.93933105 -32.46142578 33.17358398 C-31.40255911 29.36432525 -30.39860712 25.55170704 -29.4921875 21.703125 C-29.23211914 20.60750244 -29.23211914 20.60750244 -28.96679688 19.48974609 C-28.64322228 18.10820948 -28.32887928 16.7244664 -28.02539062 15.33837891 C-27.17636281 11.71114343 -26.32411101 9.78357067 -23.59375 7.30078125 C-23.33501099 6.47418503 -23.07627197 5.64758881 -22.80969238 4.79594421 C-21.59375 2.30078125 -21.59375 2.30078125 -19.36462402 1.38557434 C-18.46248169 1.26067123 -17.56033936 1.13576813 -16.63085938 1.00708008 C-15.64045654 0.86952301 -14.65005371 0.73196594 -13.62963867 0.59024048 C-9.07601863 0.15607194 -4.57291938 -0.0046502 0 0 Z " fill="#F8E271" transform="translate(264.59375,127.69921875)"/>
<path d="M0 0 C2.20372337 4.51538421 2.45625431 8.69736448 2.6875 13.625 C2.73455078 14.388125 2.78160156 15.15125 2.83007812 15.9375 C3.00843883 19.27079833 3.06483546 21.80549363 2 25 C0.02 25 -1.96 25 -4 25 C-4 27.97 -4 30.94 -4 34 C-5.65 34.33 -7.3 34.66 -9 35 C-9.33 36.65 -9.66 38.3 -10 40 C-16.69188527 41.69952642 -23.21477495 43.17127202 -30 41 C-30 41.66 -30 42.32 -30 43 C-30.66 43 -31.32 43 -32 43 C-32.33 44.98 -32.66 46.96 -33 49 C-35.97 49.66 -38.94 50.32 -42 51 C-42 51.66 -42 52.32 -42 53 C-42.99 53 -43.98 53 -45 53 C-45 53.66 -45 54.32 -45 55 C-43.35 55.33 -41.7 55.66 -40 56 C-40.495 56.99 -40.495 56.99 -41 58 C-41.99 58 -42.98 58 -44 58 C-44 59.65 -44 61.3 -44 63 C-46.79879857 64.56147217 -48.9479273 65.26941837 -52.140625 65.45703125 C-53.35733887 65.54416382 -53.35733887 65.54416382 -54.59863281 65.63305664 C-55.91105957 65.7218811 -55.91105957 65.7218811 -57.25 65.8125 C-65.42519717 66.45983454 -73.25240902 67.76310593 -81.25 69.5625 C-90.87749149 71.7205464 -100.1420428 72.8526664 -110 73 C-109.27585007 67.11752181 -107.39700702 61.67063654 -105.5625 56.0625 C-104.9378485 54.13702785 -104.31412925 52.21125297 -103.69140625 50.28515625 C-103.41498291 49.43832275 -103.13855957 48.59148926 -102.85375977 47.71899414 C-101.8416884 44.49582033 -100.91730712 41.25126901 -100 38 C-99.3935817 37.99191315 -98.78716339 37.98382629 -98.16236877 37.97549438 C-91.81873529 37.88906229 -85.47540049 37.78954432 -79.13208008 37.68261719 C-76.76852456 37.64446664 -74.40491374 37.60959013 -72.04125977 37.578125 C-68.63277495 37.53217113 -65.22466633 37.47422731 -61.81640625 37.4140625 C-60.76916885 37.40251129 -59.72193146 37.39096008 -58.64295959 37.37905884 C-47.00337074 37.24444049 -47.00337074 37.24444049 -37 32 C-36.34 32 -35.68 32 -35 32 C-37.03791213 25.50415509 -40.01919679 23.16439061 -46 20 C-50.91429033 17.66826338 -55.88726247 15.4816399 -60.875 13.3125 C-62.87064423 12.44253588 -64.86538581 11.57073424 -66.85769653 10.69316101 C-68.64895924 9.9043365 -70.44329717 9.12250609 -72.23779297 8.34106445 C-75 7 -75 7 -77 5 C-68.59216279 3.20171577 -60.33645953 2.52438705 -51.7578125 2.1484375 C-50.41784819 2.08464166 -49.07791319 2.02022739 -47.73800659 1.95523071 C-44.24523677 1.78758808 -40.75211662 1.62888522 -37.2588501 1.47198486 C-34.40600726 1.34232132 -31.5534875 1.20623398 -28.70096016 1.06982994 C-22.79851445 0.78774367 -16.89582498 0.5106118 -10.99267578 0.24365234 C-9.95329865 0.19639008 -8.91392151 0.14912781 -7.8430481 0.10043335 C-5.2255577 0.00796804 -2.61880948 -0.01876299 0 0 Z " fill="#F8E272" transform="translate(346,213)"/>
<path d="M0 0 C0.99 0 1.98 0 3 0 C0.63373229 7.75014513 -2.61169387 14.92685215 -6.0625 22.25 C-7.13780344 24.54636739 -8.21206303 26.84322394 -9.28515625 29.140625 C-9.75832275 30.14641602 -10.23148926 31.15220703 -10.71899414 32.18847656 C-11.89361163 34.76650114 -12.97281177 37.36029841 -14 40 C-13.37955811 39.99476318 -12.75911621 39.98952637 -12.11987305 39.98413086 C-9.30909233 39.96334534 -6.49832779 39.95033483 -3.6875 39.9375 C-2.71103516 39.92912109 -1.73457031 39.92074219 -0.72851562 39.91210938 C0.20927734 39.90888672 1.14707031 39.90566406 2.11328125 39.90234375 C2.97735596 39.89710693 3.84143066 39.89187012 4.73168945 39.88647461 C7 40 7 40 10 41 C10.61875 40.01 11.2375 39.02 11.875 38 C12.57625 37.01 13.2775 36.02 14 35 C14.66 35 15.32 35 16 35 C15.22729268 40.10573699 13.16252562 44.61658991 11.08398438 49.296875 C9.22663127 53.70415357 8.71086461 57.23849378 9 62 C9.66 62 10.32 62 11 62 C11.25394531 61.44699219 11.50789063 60.89398438 11.76953125 60.32421875 C14.29979163 55.54483803 17.77334738 51.32558503 21 47 C21.6290625 46.14921875 22.258125 45.2984375 22.90625 44.421875 C29.04632353 36.28897059 29.04632353 36.28897059 33 34 C36.42333251 34.15922477 37.5631237 34.5631237 40 37 C40.20260929 39.52367742 40.27800142 41.9150387 40.25 44.4375 C40.26160156 45.43040039 40.26160156 45.43040039 40.2734375 46.44335938 C40.25064349 52.43248564 39.19253783 58.14393298 38 64 C38.65073486 63.54036865 39.30146973 63.0807373 39.97192383 62.60717773 C42.91139185 60.53986822 45.8616793 58.48856828 48.8125 56.4375 C49.83666016 55.71369141 50.86082031 54.98988281 51.91601562 54.24414062 C52.89892578 53.56416016 53.88183594 52.88417969 54.89453125 52.18359375 C55.80050049 51.54993896 56.70646973 50.91628418 57.63989258 50.26342773 C58.41872803 49.84649658 59.19756348 49.42956543 60 49 C61.485 49.495 61.485 49.495 63 50 C60.37602468 52.16790995 57.75065733 54.33412762 55.125 56.5 C54.34938721 57.1405835 53.57377441 57.78116699 52.7746582 58.44116211 C47.90159578 62.45842757 42.99345029 66.41209916 37.98046875 70.25390625 C33.08083008 74.57370602 30.32767021 79.88342424 27.3125 85.5625 C23.10904986 93.28111151 18.57520467 100.18173805 13 107 C12.5654248 107.53995605 12.13084961 108.07991211 11.68310547 108.63623047 C-3.34739617 127.26550941 -3.34739617 127.26550941 -14 132 C-17.875 132.3125 -17.875 132.3125 -21 132 C-22 131 -22 131 -22.296875 128.34765625 C-21.9380827 124.30180093 -20.46920211 121.7215085 -18.25 118.4375 C-17.8487793 117.83180176 -17.44755859 117.22610352 -17.03417969 116.60205078 C-8.16340925 103.61969512 3.86839153 92.58999127 16.015625 82.7109375 C26.07790337 74.64381518 26.07790337 74.64381518 31 63 C31.32291016 61.83791016 31.32291016 61.83791016 31.65234375 60.65234375 C33.42963173 53.50834303 33.18974247 46.31562623 33 39 C28.59332179 43.78639197 24.25085961 48.5665536 20.3125 53.75 C12.57103047 63.79250541 12.57103047 63.79250541 7.6875 64.4375 C5 64 5 64 4 63 C3.41986457 55.69029358 4.91293827 50.60135076 8 44 C-5.02609954 44.68469117 -5.02609954 44.68469117 -18 46 C-18.226875 47.216875 -18.45375 48.43375 -18.6875 49.6875 C-18.87892578 50.71423828 -18.87892578 50.71423828 -19.07421875 51.76171875 C-19.18017947 54.144172 -19.18017947 54.144172 -17.546875 56.36328125 C-14.15927547 62.13759862 -15.3903768 69.85219716 -16.62109375 76.20703125 C-20.39824891 89.55297948 -27.63817986 109.32291725 -40 117 C-43.25 117.1875 -43.25 117.1875 -46 117 C-49.64922859 110.53383893 -48.22746478 103.68730028 -46.32373047 96.80761719 C-46.07252441 95.96360352 -45.82131836 95.11958984 -45.5625 94.25 C-45.30098145 93.3518457 -45.03946289 92.45369141 -44.77001953 91.52832031 C-41.67835013 81.33378406 -37.39620823 71.68520944 -33 62 C-32.24060577 60.29757968 -31.4827245 58.59448344 -30.7265625 56.890625 C-30.39479004 56.14329102 -30.06301758 55.39595703 -29.72119141 54.62597656 C-29.48319824 54.0894043 -29.24520508 53.55283203 -29 53 C-29.92232422 53.63228516 -29.92232422 53.63228516 -30.86328125 54.27734375 C-31.67152344 54.82519531 -32.47976563 55.37304688 -33.3125 55.9375 C-34.11300781 56.48277344 -34.91351563 57.02804687 -35.73828125 57.58984375 C-39.19165618 59.74298425 -42.006805 60.17869295 -46 60.25 C-46.86625 60.27578125 -47.7325 60.3015625 -48.625 60.328125 C-51 60 -51 60 -52.78125 58.6640625 C-54.3164794 56.56788389 -54.5317878 54.86883442 -54.421875 52.296875 C-53.09087069 45.050296 -50.22998018 37.28896492 -45 32 C-43.68 32 -42.36 32 -41 32 C-41.45310052 36.16852479 -42.23221026 39.9362319 -43.5 43.9375 C-44.87465762 48.31628745 -45.57730885 52.43493555 -46 57 C-39.71562619 54.51578044 -39.71562619 54.51578044 -34 51 C-33.87753906 50.18789063 -33.75507813 49.37578125 -33.62890625 48.5390625 C-33 46 -33 46 -31.14453125 44.734375 C-29.60462179 44.08436296 -28.06297749 43.43844379 -26.51953125 42.796875 C-18.26732682 36.91158192 -14.19060157 24.83612311 -9.76757812 16.0625 C-4.01655176 4.79239851 -4.01655176 4.79239851 0 0 Z " fill="#1C1E20" transform="translate(313,274)"/>
<path d="M0 0 C7.5299932 0.28149507 13.30257028 1.56267012 20 5 C19.50597146 12.46782554 18.1028268 19.41628257 16.125 26.625 C15.82110352 27.73673584 15.51720703 28.84847168 15.20410156 29.99389648 C-3.81731685 97.81731685 -3.81731685 97.81731685 -20 114 C-22.12890625 114.01171875 -22.12890625 114.01171875 -24.5625 113.6875 C-25.36816406 113.58824219 -26.17382812 113.48898438 -27.00390625 113.38671875 C-29 113 -29 113 -30 112 C-32.07713986 91.61435593 -25.53992469 70.43274039 -20 51 C-19.72285156 49.99839844 -19.44570312 48.99679688 -19.16015625 47.96484375 C-17.76940181 43.100962 -16.02395963 38.47878994 -14.0859375 33.80859375 C-12.82143146 30.53816265 -11.79642651 27.22145793 -10.75 23.875 C-8.07445204 15.46520464 -4.12051931 7.78093101 0 0 Z " fill="#899BB8" transform="translate(214,130)"/>
<path d="M0 0 C3.10407021 1.83060551 3.90875714 3.16409014 5.4375 6.4375 C10.52202252 35.22754253 -5.42597754 76.38621584 -20.5625 100.4375 C-21.38814453 100.00630859 -21.38814453 100.00630859 -22.23046875 99.56640625 C-28.70990407 96.42979518 -35.37911656 94.07602297 -42.5625 93.4375 C-42.87700562 68.32197967 -31.41592527 41.23754954 -19.5625 19.4375 C-19.0365625 18.46941406 -18.510625 17.50132813 -17.96875 16.50390625 C-7.57230962 -1.66221431 -7.57230962 -1.66221431 0 0 Z " fill="#8A9CB9" transform="translate(259.5625,26.5625)"/>
<path d="M0 0 C2.97200464 2.60715497 5.82084629 5.86888524 6.16113281 9.91674805 C6.37252764 21.72167405 5.97803638 32.51328824 3 44 C2.77183594 44.92425781 2.54367187 45.84851563 2.30859375 46.80078125 C1.59502127 49.55313225 0.81063219 52.27466192 0 55 C-0.33644531 56.15371094 -0.67289062 57.30742188 -1.01953125 58.49609375 C-5.42220678 73.2709493 -10.60768886 87.90137081 -17.8203125 101.546875 C-19.4625834 104.9619284 -20.19440413 108.30768557 -21 112 C-21.66 112.99 -22.32 113.98 -23 115 C-23.66 115 -24.32 115 -25 115 C-25.10699219 116.25039062 -25.21398437 117.50078125 -25.32421875 118.7890625 C-25.95794026 124.46480994 -27.34038814 129.86645241 -28.8125 135.375 C-29.06064453 136.33921875 -29.30878906 137.3034375 -29.56445312 138.296875 C-31.07855935 144.0450849 -32.88768251 149.58548758 -34.97558594 155.14892578 C-36.06762127 158.18819857 -37.00903205 161.24959371 -37.93359375 164.34375 C-42.79032225 180.35795552 -49.15372968 196.09227269 -56.875 210.9375 C-57.31465088 211.78828125 -57.75430176 212.6390625 -58.20727539 213.515625 C-61.10171999 218.89204346 -63.92133209 223.97377736 -70 226 C-70.78375 227.010625 -71.5675 228.02125 -72.375 229.0625 C-75 232 -75 232 -77.8125 232.375 C-78.8953125 232.189375 -78.8953125 232.189375 -80 232 C-80.04898438 231.38511719 -80.09796875 230.77023438 -80.1484375 230.13671875 C-80.22320312 229.32847656 -80.29796875 228.52023438 -80.375 227.6875 C-80.44460937 226.88699219 -80.51421875 226.08648437 -80.5859375 225.26171875 C-80.89564426 222.72775559 -80.89564426 222.72775559 -83 220 C-85.99358 196.21031119 -77.62209573 169.33252699 -70 147 C-69.66210449 146.00000977 -69.32420898 145.00001953 -68.97607422 143.96972656 C-61.86895376 123.11002965 -61.86895376 123.11002965 -56.9375 113.9375 C-54.17833953 108.7916973 -53.5740831 105.74987812 -54 100 C-53.53078125 99.39285156 -53.0615625 98.78570312 -52.578125 98.16015625 C-50.58257653 95.4286258 -50.39691594 93.40734368 -50 90.0625 C-46.32933214 59.81772624 -33.6492048 22.39324151 -11 1 C-7.06588423 -1.44573357 -4.48597745 -1.25922174 0 0 Z M-8.8125 4.25 C-17.89124833 11.28544947 -23.07665839 21.90781682 -28 32 C-28.50144531 33.00804688 -29.00289062 34.01609375 -29.51953125 35.0546875 C-37.94795036 53.30465284 -46.38007243 76.78014648 -46 97 C-45.05898437 97.17015625 -44.11796875 97.3403125 -43.1484375 97.515625 C-31.15108726 99.85051304 -31.15108726 99.85051304 -26 104 C-25.34 104 -24.68 104 -24 104 C-10.77752497 79.50059123 2.08647381 48.20826849 2.25 20 C2.270625 19.11054687 2.29125 18.22109375 2.3125 17.3046875 C2.34183878 12.3904421 2.26643835 8.95575867 -1 5 C-4.1994541 2.83820669 -5.25712144 2.66983175 -8.8125 4.25 Z M-49 107 C-54.17990519 116.64987413 -58.32860254 126.18579541 -61.578125 136.6484375 C-62.55621707 139.77008357 -63.70186541 142.76847141 -64.95703125 145.7890625 C-73.92673645 167.85563787 -80.62540645 195.0884651 -79 219 C-75.44035251 220.91024186 -73.08753479 221.59609882 -69 221 C-48.44056153 198.8622612 -30.02377825 144.50080205 -28.88671875 113.95703125 C-28.94279297 112.98830078 -28.94279297 112.98830078 -29 112 C-35.63729312 108.47649871 -41.513226 107.2798794 -49 107 Z " fill="#0D0D0B" transform="translate(263,23)"/>
<path d="M0 0 C0.99 0 1.98 0 3 0 C0.46446811 14.29117976 -3.97200163 28.1048522 -8.4128418 41.89770508 C-10.39122409 48.04974924 -12.28045442 54.2185455 -14.07495117 60.42651367 C-15.29893093 64.64972255 -16.56562233 68.85736584 -17.86328125 73.05859375 C-18.18554688 74.104104 -18.5078125 75.14961426 -18.83984375 76.22680664 C-19.47835037 78.29345897 -20.12017123 80.35909083 -20.765625 82.42358398 C-21.05566406 83.36403564 -21.34570312 84.3044873 -21.64453125 85.2734375 C-22.03668823 86.53293213 -22.03668823 86.53293213 -22.43676758 87.81787109 C-23.12496031 90.10852561 -23.12496031 90.10852561 -23 93 C-21.96552734 92.20335937 -21.96552734 92.20335937 -20.91015625 91.390625 C-5.58715426 79.8720995 -5.58715426 79.8720995 4 81 C6.375 81.5625 6.375 81.5625 8 83 C9.125 86.1875 9.125 86.1875 9 90 C3.6396368 100.55758491 -10.55112359 105.53137436 -21 109 C-21.67514648 109.11480713 -22.35029297 109.22961426 -23.04589844 109.34790039 C-26.55705757 110.5196028 -27.69896454 114.42967098 -29.3125 117.5625 C-29.66505859 118.27341797 -30.01761719 118.98433594 -30.38085938 119.71679688 C-31.46560129 121.71218632 -32.41185894 123.37299835 -34 125 C-37.79296875 125.46484375 -37.79296875 125.46484375 -41 125 C-42.39029316 121.24020284 -41.58042525 118.85771978 -40.34106445 115.12084961 C-39.95348465 113.93539047 -39.56590485 112.74993134 -39.1665802 111.52854919 C-38.73241046 110.23639223 -38.29797048 108.94432604 -37.86328125 107.65234375 C-37.42216673 106.31706228 -36.98192881 104.98149094 -36.54252625 103.64564514 C-35.38119529 100.12369781 -34.2071015 96.60612983 -33.03057861 93.0892334 C-32.08205835 90.24697812 -31.14243716 87.40182245 -30.20336628 84.55643368 C-29.07209621 81.12910035 -27.93709354 77.7030083 -26.80078125 74.27734375 C-26.58846674 73.6372682 -26.37615223 72.99719265 -26.15740395 72.33772087 C-23.82112503 65.3070162 -21.42719771 58.30758682 -18.8477478 51.36207581 C-17.50537955 47.62184131 -16.39873143 43.82101989 -15.3125 40 C-13.05725806 32.17177419 -13.05725806 32.17177419 -12 29 C-13.36318359 29.19916016 -13.36318359 29.19916016 -14.75390625 29.40234375 C-30.87332943 31.66732937 -46.74140734 32.15269593 -63 32 C-61.53515625 29.046875 -61.53515625 29.046875 -59 26 C-55.90745453 25.41450297 -53.52877769 25.20977254 -50.4375 25.25 C-48.72646862 25.21975575 -47.01552046 25.18445229 -45.3046875 25.14453125 C-44.42780273 25.1285791 -43.55091797 25.11262695 -42.64746094 25.09619141 C-38.42525516 24.94278408 -34.25515937 24.43926529 -30.0625 23.9375 C-23.01470361 23.12779003 -16.10224324 22.74482958 -9 23 C-8.89558594 22.34386719 -8.79117188 21.68773437 -8.68359375 21.01171875 C-7.8044505 17.13846476 -6.46300017 13.52365753 -5.0625 9.8125 C-4.79759766 9.08869141 -4.53269531 8.36488281 -4.25976562 7.61914062 C-2.24514044 2.24514044 -2.24514044 2.24514044 0 0 Z " fill="#1C1D1D" transform="translate(251,223)"/>
<path d="M0 0 C1.32 0 2.64 0 4 0 C4.31624972 5.75365873 3.26945541 10.18072568 1.39453125 15.59765625 C1.1190596 16.41689575 0.84358795 17.23613525 0.55976868 18.0802002 C-0.34278251 20.74568961 -1.26344175 23.40439586 -2.1875 26.0625 C-2.50068176 26.97272919 -2.81386353 27.88295837 -3.13653564 28.82077026 C-10.86359652 51.22521691 -19.91404984 73.03142452 -31 94 C-31.50660156 95.00417969 -32.01320312 96.00835937 -32.53515625 97.04296875 C-38.71196261 108.98479438 -48.75340413 123.36475458 -62 128 C-67.37353788 128.90174914 -71.43025896 129.07919697 -76 125.9375 C-81.39992372 118.00636204 -81.48273212 111.29109823 -81.375 101.875 C-81.37167664 101.19146454 -81.36835327 100.50792908 -81.3649292 99.80368042 C-81.2977932 87.85433365 -80.5878688 75.97028558 -79.625 64.0625 C-79.5620575 63.27204285 -79.49911499 62.48158569 -79.43426514 61.66717529 C-78.78163453 53.65024668 -78.04269292 45.80663946 -76 38 C-74.02 37.505 -74.02 37.505 -72 37 C-70.10470497 42.05412008 -70.04458532 44.47366132 -71.48388672 49.76367188 C-72.39755217 53.72260071 -72.48566652 57.70089575 -72.625 61.75 C-72.66077148 62.70865967 -72.69654297 63.66731934 -72.73339844 64.6550293 C-73.02327425 73.57009088 -73.16476181 82.49018361 -73.23016357 91.4095459 C-73.24326598 92.99675146 -73.26111961 94.58392574 -73.28399658 96.17102051 C-73.81713823 109.01819499 -73.81713823 109.01819499 -70 121 C-67.98045836 122.27623759 -67.98045836 122.27623759 -66 123 C-65.44570312 122.566875 -64.89140625 122.13375 -64.3203125 121.6875 C-63.59585938 121.130625 -62.87140625 120.57375 -62.125 120 C-61.40570313 119.443125 -60.68640625 118.88625 -59.9453125 118.3125 C-58 117 -58 117 -56 117 C-55.7421875 116.42507813 -55.484375 115.85015625 -55.21875 115.2578125 C-53.89131679 112.79865738 -52.33903231 110.97782793 -50.5 108.875 C-31.66789923 85.48674582 -20.69394732 53.81524997 -10 26 C-9.50428693 24.71811444 -9.00819024 23.43637717 -8.51171875 22.15478516 C-5.65415497 14.77758726 -2.81528809 7.39343778 0 0 Z " fill="#1B1C1D" transform="translate(162,223)"/>
<path d="M0 0 C2.3125 0.875 2.3125 0.875 4.3125 2.875 C4.51510929 5.39867742 4.59050142 7.7900387 4.5625 10.3125 C4.57410156 11.30540039 4.57410156 11.30540039 4.5859375 12.31835938 C4.56314349 18.30748564 3.50503783 24.01893298 2.3125 29.875 C2.96323486 29.41536865 3.61396973 28.9557373 4.28442383 28.48217773 C7.22389185 26.41486822 10.1741793 24.36356828 13.125 22.3125 C14.14916016 21.58869141 15.17332031 20.86488281 16.22851562 20.11914062 C17.70288086 19.09916992 17.70288086 19.09916992 19.20703125 18.05859375 C20.11300049 17.42493896 21.01896973 16.79128418 21.95239258 16.13842773 C22.73122803 15.72149658 23.51006348 15.30456543 24.3125 14.875 C25.3025 15.205 26.2925 15.535 27.3125 15.875 C24.68852468 18.04290995 22.06315733 20.20912762 19.4375 22.375 C18.66188721 23.0155835 17.88627441 23.65616699 17.0871582 24.31616211 C12.21409578 28.33342757 7.30595029 32.28709916 2.29296875 36.12890625 C-2.60666992 40.44870602 -5.35982979 45.75842424 -8.375 51.4375 C-12.57845014 59.15611151 -17.11229533 66.05673805 -22.6875 72.875 C-23.1220752 73.41495605 -23.55665039 73.95491211 -24.00439453 74.51123047 C-39.03489617 93.14050941 -39.03489617 93.14050941 -49.6875 97.875 C-53.5625 98.1875 -53.5625 98.1875 -56.6875 97.875 C-57.6875 96.875 -57.6875 96.875 -57.984375 94.22265625 C-57.6255827 90.17680093 -56.15670211 87.5965085 -53.9375 84.3125 C-53.33566895 83.40395264 -53.33566895 83.40395264 -52.72167969 82.47705078 C-43.85090925 69.49469512 -31.81910847 58.46499127 -19.671875 48.5859375 C-9.60959663 40.51881518 -9.60959663 40.51881518 -4.6875 28.875 C-4.47222656 28.10027344 -4.25695312 27.32554687 -4.03515625 26.52734375 C-2.25786827 19.38334303 -2.49775753 12.19062623 -2.6875 4.875 C-7.09417821 9.66139197 -11.43664039 14.4415536 -15.375 19.625 C-23.11646953 29.66750541 -23.11646953 29.66750541 -28 30.3125 C-30.6875 29.875 -30.6875 29.875 -31.6875 28.875 C-32.27800561 21.43462934 -30.74661079 16.66240207 -27.6875 9.875 C-32.3075 9.875 -36.9275 9.875 -41.6875 9.875 C-41.6875 9.545 -41.6875 9.215 -41.6875 8.875 C-40.15029297 8.88853516 -40.15029297 8.88853516 -38.58203125 8.90234375 C-31.1645655 9.08472887 -31.1645655 9.08472887 -24.6484375 6.25 C-23.19474151 4.12603469 -23.19474151 4.12603469 -21.6875 0.875 C-21.0275 0.875 -20.3675 0.875 -19.6875 0.875 C-20.46020732 5.98073699 -22.52497438 10.49158991 -24.60351562 15.171875 C-26.46086873 19.57915357 -26.97663539 23.11349378 -26.6875 27.875 C-26.0275 27.875 -25.3675 27.875 -24.6875 27.875 C-24.43355469 27.32199219 -24.17960937 26.76898438 -23.91796875 26.19921875 C-21.38770837 21.41983803 -17.91415262 17.20058503 -14.6875 12.875 C-14.0584375 12.02421875 -13.429375 11.1734375 -12.78125 10.296875 C-4.83757997 -0.22500372 -4.83757997 -0.22500372 0 0 Z " fill="#1F2123" transform="translate(348.6875,308.125)"/>
<path d="M0 0 C0 1.32 0 2.64 0 4 C-4.06785632 4.74141394 -8.0245384 5.18336716 -12.15380859 5.37304688 C-13.34879974 5.42980591 -14.54379089 5.48656494 -15.7749939 5.54504395 C-17.69234848 5.63102844 -17.69234848 5.63102844 -19.6484375 5.71875 C-20.98835093 5.78178712 -22.32824534 5.84522987 -23.66812134 5.90905762 C-27.90356688 6.11000482 -32.13926493 6.30526599 -36.375 6.5 C-41.28066002 6.72594331 -46.18619186 6.95427655 -51.09151077 7.18751526 C-53.04325856 7.27924416 -54.99518515 7.36714298 -56.94711304 7.45495605 C-67.0427535 7.1001699 -67.0427535 7.1001699 -76 10 C-75.47792969 10.23074219 -74.95585937 10.46148437 -74.41796875 10.69921875 C-65.22861338 14.77085957 -56.04797585 18.87139543 -47 23.25 C-46.02353516 23.70632812 -46.02353516 23.70632812 -45.02734375 24.171875 C-40.99516627 26.15800064 -38.38133652 28.16604821 -36 32 C-36 33.32 -36 34.64 -36 36 C-43.49052445 42.5302008 -53.13140965 42.29061138 -62.59765625 42.1953125 C-64.20996376 42.19106766 -64.20996376 42.19106766 -65.85484314 42.18673706 C-69.25751302 42.17562274 -72.65991089 42.15053447 -76.0625 42.125 C-78.38215763 42.11495889 -80.70181943 42.10583503 -83.02148438 42.09765625 C-88.68108097 42.07571212 -94.34052104 42.04232265 -100 42 C-99.505 39.03 -99.505 39.03 -99 36 C-97.70900391 35.98018066 -96.41800781 35.96036133 -95.08789062 35.93994141 C-90.27194593 35.86354015 -85.45628983 35.7748771 -80.640625 35.68261719 C-78.56125612 35.64446956 -76.48182445 35.60959255 -74.40234375 35.578125 C-71.40341842 35.53216446 -68.40492012 35.47422236 -65.40625 35.4140625 C-64.02451599 35.39673569 -64.02451599 35.39673569 -62.61486816 35.37905884 C-57.10377635 35.25466649 -52.29736028 34.54055886 -47 33 C-54.71102039 26.45403002 -63.5927065 23.03666162 -72.95703125 19.5 C-87.72182278 13.87958233 -87.72182278 13.87958233 -92 9 C-92 8.01 -92 7.02 -92 6 C-88.41020514 3.79515827 -85.24718091 3.62900465 -81.08276367 3.40576172 C-80.39426331 3.36645538 -79.70576294 3.32714905 -78.99639893 3.28665161 C-76.72063741 3.15900481 -74.44442879 3.0441448 -72.16796875 2.9296875 C-70.57290637 2.84352391 -68.97788004 2.75669052 -67.38288879 2.66921997 C-64.03327442 2.48738188 -60.68341959 2.31147386 -57.33325195 2.14013672 C-53.08125849 1.92252533 -48.82995976 1.69383022 -44.57877636 1.46098137 C-41.27825794 1.28089535 -37.97751837 1.10517561 -34.67669106 0.93085098 C-33.11207569 0.84804045 -31.54750726 0.76433719 -29.98299217 0.67965317 C-19.97630899 0.14258155 -10.02212724 -0.10605789 0 0 Z " fill="#484221" transform="translate(347,209)"/>
<path d="M0 0 C1.99609375 0.015625 1.99609375 0.015625 4.4375 0.25 C5.64212891 0.35054688 5.64212891 0.35054688 6.87109375 0.453125 C9 1 9 1 11 4 C11.12677897 9.45149555 8.44618727 12.42217264 4.921875 16.23046875 C2.51101462 18.45022435 0.04470791 19.8118213 -3 21 C-2.43260132 25.12973628 -2.43260132 25.12973628 -1 29 C7.44944483 29.60353177 13.06512983 27.1021707 19.53271484 21.60766602 C22.36121133 18.5085563 23.71220986 14.6662021 25.25 10.8125 C25.91793316 9.19237968 26.58963924 7.57380823 27.265625 5.95703125 C27.55211914 5.24522705 27.83861328 4.53342285 28.13378906 3.80004883 C29 2 29 2 31 0 C31.99 0 32.98 0 34 0 C33.67 3.96 33.34 7.92 33 12 C33.72445312 11.13375 34.44890625 10.2675 35.1953125 9.375 C36.17098302 8.24922633 37.14759542 7.12426848 38.125 6 C38.599375 5.42765625 39.07375 4.8553125 39.5625 4.265625 C42.0691249 1.42026701 43.4320486 0.07713763 47.25 -0.44140625 C50 0 50 0 51.875 1.0625 C53.60650952 4.04454418 53.24109786 6.6246299 53 10 C52.67 10.99 52.34 11.98 52 13 C51.01 12.67 50.02 12.34 49 12 C47.8125 9.4375 47.8125 9.4375 47 7 C41.76455309 10.56962289 38.60018745 15.39973445 35 20.5 C27.40043884 31.26604498 27.40043884 31.26604498 23 34 C20.1875 33.75 20.1875 33.75 18 33 C18 31.35 18 29.7 18 28 C17.40574219 28.433125 16.81148437 28.86625 16.19921875 29.3125 C9.74154369 33.65109351 4.75997075 35.24109387 -3 34 C-6.58922531 32.65404051 -7.64627282 31.51229454 -9.8125 28.375 C-12.08975413 21.90280405 -11.74544247 16.96746795 -8.8125 10.75 C-6.6562971 6.80003286 -4.39908127 3.92698665 -1 1 C-0.67 0.67 -0.34 0.34 0 0 Z " fill="#1E2021" transform="translate(161,302)"/>
<path d="M0 0 C0 4.62 0 9.24 0 14 C-22.1605124 12.33010323 -44.11511849 9.89617209 -66 6 C-65.67 5.34 -65.34 4.68 -65 4 C-61.83110518 3.10846875 -58.51227585 2.83958584 -55.25 2.4375 C-54.2197168 2.30819092 -53.18943359 2.17888184 -52.12792969 2.0456543 C-34.8795594 0.09717188 -17.34556339 0 0 0 Z " fill="#F2DD6F" transform="translate(316,174)"/>
<path d="M0 0 C8.48431856 -0.37455629 16.60643949 0.6171719 24.95239258 1.97143555 C27.06100957 2.3122591 29.17171317 2.63649426 31.28320312 2.95898438 C48.21464954 5.60732477 48.21464954 5.60732477 55 9 C54.67 9.99 54.34 10.98 54 12 C43.34260572 16.39685367 32.54088738 15.86394402 21.7109375 12.80078125 C13.29442449 10.98458634 4.57440234 10.63747225 -4 10 C-4.33 8.35 -4.66 6.7 -5 5 C-3.02 4.67 -1.04 4.34 1 4 C0.67 2.68 0.34 1.36 0 0 Z " fill="#FCFBFA" transform="translate(316,193)"/>
<path d="M0 0 C12.4118748 0.88940707 24.74955504 2.23235929 37.06546021 4.00137329 C38.50754723 4.20675833 39.9504884 4.4062434 41.39425659 4.59945679 C50.01239521 5.76227406 57.49085476 7.40721287 65 12 C65 13.32 65 14.64 65 16 C54.03938158 21.45263088 43.17226288 23.43065222 31 24 C31 23.01 31 22.02 31 21 C30.34 20.67 29.68 20.34 29 20 C30.30195313 19.87882812 31.60390625 19.75765625 32.9453125 19.6328125 C34.6719107 19.46390615 36.39847128 19.29461499 38.125 19.125 C39.40890625 19.00705078 39.40890625 19.00705078 40.71875 18.88671875 C45.37588156 18.42100559 49.65665603 17.87332727 54 16 C54.33 15.34 54.66 14.68 55 14 C42.72668557 10.90159218 30.4492144 8.64182211 17.9375 6.75 C16.18415028 6.4797792 14.43089443 6.20894862 12.67773438 5.9375 C8.45286617 5.2846694 4.22683415 4.63997277 0 4 C0 2.68 0 1.36 0 0 Z " fill="#4A4A4A" transform="translate(316,188)"/>
<path d="M0 0 C1.83850198 1.5564038 2.88954341 2.48020429 3.3984375 4.875 C3.22088313 20.97326318 -4.69304353 39.7027347 -15 52 C-15.66 52 -16.32 52 -17 52 C-17.64983491 34.54408996 -7.63484484 15.26968969 0 0 Z " fill="#F3F3F3" transform="translate(289,333)"/>
<path d="M0 0 C0.66 0.33 1.32 0.66 2 1 C-6.2365099 17.66393228 -19.1596682 37.48585508 -37 45 C-35.9898817 39.45697583 -32.29831517 35.4208775 -29 31 C-28.41863281 30.20980469 -27.83726562 29.41960937 -27.23828125 28.60546875 C-19.1575991 18.19728789 -9.38561681 9.20967878 0 0 Z " fill="#F6F6F6" transform="translate(334,358)"/>
<path d="M0 0 C-0.33 2.64 -0.66 5.28 -1 8 C-1.495 7.01 -1.495 7.01 -2 6 C-3.36318359 6.19916016 -3.36318359 6.19916016 -4.75390625 6.40234375 C-20.87332943 8.66732937 -36.74140734 9.15269593 -53 9 C-51.53515625 6.046875 -51.53515625 6.046875 -49 3 C-45.90750089 2.41451175 -43.52873825 2.20976899 -40.4375 2.25 C-38.72777069 2.21975247 -37.01812464 2.18444809 -35.30859375 2.14453125 C-34.43187012 2.1285791 -33.55514648 2.11262695 -32.65185547 2.09619141 C-28.4076944 1.94224191 -24.21478669 1.43948203 -20 0.9375 C-13.30687112 0.17104862 -6.74589541 -0.27286768 0 0 Z " fill="#453F20" transform="translate(241,246)"/>
<path d="M0 0 C1.17747546 3.47725617 0.81397358 5.86259116 -0.00390625 9.41015625 C-0.2469751 10.47306885 -0.49004395 11.53598145 -0.74047852 12.63110352 C-1.01174561 13.76346436 -1.2830127 14.8958252 -1.5625 16.0625 C-1.83698975 17.229021 -2.11147949 18.39554199 -2.39428711 19.59741211 C-4.61560829 28.83569992 -7.31328516 37.84119482 -10.30175781 46.85449219 C-11.41614619 50.27870376 -12.43107089 53.73027554 -13.4375 57.1875 C-13.63118164 57.85136719 -13.82486328 58.51523438 -14.02441406 59.19921875 C-14.44179805 60.63292939 -14.85842541 62.06686045 -15.27441406 63.50097656 C-16.13577948 66.46764427 -17.00137854 69.43306362 -17.8671875 72.3984375 C-19.57995714 78.26509175 -21.29061167 84.13235971 -23 90 C-24.3662209 86.20688564 -23.66542195 83.29780321 -22.84765625 79.41015625 C-22.64542198 78.43826859 -22.64542198 78.43826859 -22.43910217 77.44674683 C-21.99115558 75.31616936 -21.5282519 73.18925197 -21.0625 71.0625 C-20.82500031 69.96362961 -20.82500031 69.96362961 -20.58270264 68.84255981 C-15.47205435 45.26939867 -8.99129293 22.41230454 0 0 Z " fill="#C3CDDD" transform="translate(213,143)"/>
<path d="M0 0 C0.33 0 0.66 0 1 0 C2.09833106 14.00372099 -5.75207311 28.63714532 -10.625 41.5 C-11.31284697 43.32539012 -12.00034928 45.15091016 -12.6875 46.9765625 C-17.98309636 61.02804012 -17.98309636 61.02804012 -20 66 C-21.07508721 62.77473837 -20.94240738 61.80710511 -20.21484375 58.59765625 C-20.01713379 57.71746826 -19.81942383 56.83728027 -19.61572266 55.93041992 C-19.39190918 54.98400635 -19.1680957 54.03759277 -18.9375 53.0625 C-18.59404541 51.5916394 -18.59404541 51.5916394 -18.24365234 50.09106445 C-8.6201961 9.73808897 -8.6201961 9.73808897 0 0 Z " fill="#C5CEDE" transform="translate(243,52)"/>
<path d="M0 0 C0 1.98 0 3.96 0 6 C-12.21 6 -24.42 6 -37 6 C-37 5.01 -37 4.02 -37 3 C-41.95 2.67 -46.9 2.34 -52 2 C-52 1.67 -52 1.34 -52 1 C-47.00536457 0.85483629 -42.01065718 0.71256802 -37.01586914 0.57275391 C-35.32379031 0.52500848 -33.63173197 0.47653026 -31.93969727 0.42724609 C-21.28918711 0.11761987 -10.65538979 -0.07209737 0 0 Z " fill="#474743" transform="translate(353,168)"/>
<path d="M0 0 C0.66 0 1.32 0 2 0 C1.22729268 5.10573699 -0.83747438 9.61658991 -2.91601562 14.296875 C-4.77336873 18.70415357 -5.28913539 22.23849378 -5 27 C-4.34 27 -3.68 27 -3 27 C-2.72929687 26.42507813 -2.45859375 25.85015625 -2.1796875 25.2578125 C-0.98284565 22.96716817 0.34670657 20.95759674 1.875 18.875 C2.36742187 18.19179688 2.85984375 17.50859375 3.3671875 16.8046875 C5.11044971 14.877924 6.62196759 13.99856772 9 13 C8.45857492 17.08443481 6.31459905 19.17474982 3.5625 22.125 C2.75941406 22.99382812 1.95632813 23.86265625 1.12890625 24.7578125 C-2.89271828 28.99343173 -2.89271828 28.99343173 -6.0625 29.1875 C-9 29 -9 29 -10 28 C-10.59050561 20.55962934 -9.05911079 15.78740207 -6 9 C-10.62 9 -15.24 9 -20 9 C-20 8.67 -20 8.34 -20 8 C-18.97519531 8.00902344 -17.95039063 8.01804687 -16.89453125 8.02734375 C-9.4770655 8.20972887 -9.4770655 8.20972887 -2.9609375 5.375 C-1.50724151 3.25103469 -1.50724151 3.25103469 0 0 Z " fill="#313335" transform="translate(327,309)"/>
<path d="M0 0 C7.06363132 -0.52977235 12.67486976 -0.72020307 18.57421875 3.5546875 C20.54390397 5.55135471 21 7.22356958 21 10 C18.0580935 9.58950142 15.40992539 9.16943583 12.65625 8.03125 C9.82925827 6.93371203 7.17441399 6.37881682 4.1875 5.875 C3.21167969 5.70742187 2.23585937 5.53984375 1.23046875 5.3671875 C0.49441406 5.24601563 -0.24164063 5.12484375 -1 5 C-0.67 3.35 -0.34 1.7 0 0 Z " fill="#EFDA6D" transform="translate(216,123)"/>
<path d="M0 0 C-0.06982558 2.93267445 -0.34644707 5.17244921 -2.203125 7.5234375 C-7.37614056 12.26955372 -13.68327636 15.07501467 -20 18 C-20 14 -20 14 -18.6015625 12.0703125 C-6.3373494 0 -6.3373494 0 0 0 Z " fill="#EDEDED" transform="translate(252,308)"/>
<path d="M0 0 C0.33 0.99 0.66 1.98 1 3 C-0.5546875 5.34765625 -0.5546875 5.34765625 -2.875 8.0625 C-3.70386719 9.03574219 -4.53273438 10.00898438 -5.38671875 11.01171875 C-6.24910156 11.99785156 -7.11148437 12.98398437 -8 14 C-9.18529297 15.37091797 -9.18529297 15.37091797 -10.39453125 16.76953125 C-18.30528387 25.75841029 -18.30528387 25.75841029 -23 29 C-23.99 28.67 -24.98 28.34 -26 28 C-25.32195312 27.26136719 -24.64390625 26.52273438 -23.9453125 25.76171875 C-23.00516655 24.7370175 -22.06506585 23.71227474 -21.125 22.6875 C-20.6304834 22.14859131 -20.1359668 21.60968262 -19.62646484 21.05444336 C-17.14956793 18.35305547 -14.67726193 15.64782677 -12.21875 12.9296875 C-10.93484375 11.51042969 -10.93484375 11.51042969 -9.625 10.0625 C-8.85414063 9.20785156 -8.08328125 8.35320312 -7.2890625 7.47265625 C-4.92132993 4.91502021 -2.47959523 2.44892886 0 0 Z " fill="#292B2D" transform="translate(329,373)"/>
<path d="M0 0 C-1.75 5.75 -1.75 5.75 -4 8 C-6.625 7.625 -6.625 7.625 -9 7 C-9.6875 5.1875 -9.6875 5.1875 -10 3 C-7.70195295 -1.02158234 -4.18378338 -0.23681793 0 0 Z " fill="#2B2D2F" transform="translate(278,290)"/>
<path d="M0 0 C0.33 0.99 0.66 1.98 1 3 C-1.97 6.3 -4.94 9.6 -8 13 C-8.99 12.67 -9.98 12.34 -11 12 C-7.49102731 7.81576108 -3.91939465 3.80411834 0 0 Z " fill="#2A2C2D" transform="translate(335,322)"/>
<path d="M0 0 C-0.33 0.66 -0.66 1.32 -1 2 C-2.32 2 -3.64 2 -5 2 C-5.33 2.99 -5.66 3.98 -6 5 C-8.64 5.33 -11.28 5.66 -14 6 C-14.33 5.01 -14.66 4.02 -15 3 C-9.63999211 0.74315457 -5.8022175 -0.36263859 0 0 Z " fill="#FCF0B1" transform="translate(141,271)"/>
<path d="M0 0 C0.99 0 1.98 0 3 0 C-0.07517084 12.66970387 -0.07517084 12.66970387 -2 18 C-3.51553092 14.02549507 -2.49888623 10.79518851 -1.5625 6.75 C-1.27503906 5.48671875 -0.98757812 4.2234375 -0.69140625 2.921875 C-0.46324219 1.95765625 -0.23507813 0.9934375 0 0 Z " fill="#B4C0D4" transform="translate(192,215)"/>
<path d="M0 0 C0.66 0 1.32 0 2 0 C1.58578031 4.83256305 -0.46413986 6.82679218 -4 10 C-3.52651586 5.8333396 -2.95303159 3.07115285 0 0 Z " fill="#E6E6E6" transform="translate(163,307)"/>
<path d="M0 0 C0.99 0.33 1.98 0.66 3 1 C1.90716423 2.03295436 0.80029421 3.05107835 -0.3125 4.0625 C-0.92738281 4.63097656 -1.54226563 5.19945312 -2.17578125 5.78515625 C-2.77777344 6.18605469 -3.37976563 6.58695312 -4 7 C-4.99 6.67 -5.98 6.34 -7 6 C-2.25 1.125 -2.25 1.125 0 0 Z " fill="#333436" transform="translate(373,323)"/>
<path d="M0 0 C2.475 0.495 2.475 0.495 5 1 C4.1875 3.4375 4.1875 3.4375 3 6 C2.01 6.33 1.02 6.66 0 7 C0 4.69 0 2.38 0 0 Z " fill="#848484" transform="translate(185,246)"/>
<path d="M0 0 C0 0.66 0 1.32 0 2 C-4.75 3.125 -4.75 3.125 -7 2 C-7.33 3.32 -7.66 4.64 -8 6 C-8.33 5.34 -8.66 4.68 -9 4 C-8.25 1.9375 -8.25 1.9375 -7 0 C-3.86650268 -1.04449911 -3.01031744 -0.93423645 0 0 Z " fill="#F4EFD4" transform="translate(160,267)"/>
</svg>
